<svg width="20" height="20" viewBox="0 0 20 20" fill="none" xmlns="http://www.w3.org/2000/svg">
<g id="vuesax/linear/people">
<g id="people">
<g id="Group">
<path id="Vector" d="M15.0004 5.96651C14.9504 5.95817 14.8921 5.95817 14.8421 5.96651C13.6921 5.92484 12.7754 4.98317 12.7754 3.81651C12.7754 2.62484 13.7337 1.6665 14.9254 1.6665C16.1171 1.6665 17.0754 2.63317 17.0754 3.81651C17.0671 4.98317 16.1504 5.92484 15.0004 5.96651Z" stroke="#2870FB" stroke-width="1.5" stroke-linecap="round" stroke-linejoin="round"/>
<path id="Vector_2" d="M14.1422 12.0333C15.2839 12.225 16.5422 12.025 17.4255 11.4333C18.6005 10.65 18.6005 9.36664 17.4255 8.58331C16.5339 7.99164 15.2589 7.79163 14.1172 7.99163" stroke="#2870FB" stroke-width="1.5" stroke-linecap="round" stroke-linejoin="round"/>
</g>
<g id="Group_2">
<path id="Vector_3" d="M4.97344 5.96651C5.02344 5.95817 5.08177 5.95817 5.13177 5.96651C6.28177 5.92484 7.19844 4.98317 7.19844 3.81651C7.19844 2.62484 6.24011 1.6665 5.04844 1.6665C3.85677 1.6665 2.89844 2.63317 2.89844 3.81651C2.90677 4.98317 3.82344 5.92484 4.97344 5.96651Z" stroke="#2870FB" stroke-width="1.5" stroke-linecap="round" stroke-linejoin="round"/>
<path id="Vector_4" d="M5.83255 12.0333C4.69088 12.225 3.43255 12.025 2.54922 11.4333C1.37422 10.65 1.37422 9.36664 2.54922 8.58331C3.44089 7.99164 4.71588 7.79163 5.85755 7.99163" stroke="#2870FB" stroke-width="1.5" stroke-linecap="round" stroke-linejoin="round"/>
</g>
<g id="Group_3">
<path id="Vector_5" d="M10.0004 12.1916C9.95039 12.1833 9.89206 12.1833 9.84206 12.1916C8.69206 12.1499 7.77539 11.2083 7.77539 10.0416C7.77539 8.84994 8.73372 7.8916 9.92539 7.8916C11.1171 7.8916 12.0754 8.85827 12.0754 10.0416C12.0671 11.2083 11.1504 12.1583 10.0004 12.1916Z" stroke="#2870FB" stroke-width="1.5" stroke-linecap="round" stroke-linejoin="round"/>
<path id="Vector_6" d="M7.57461 14.8168C6.39961 15.6001 6.39961 16.8835 7.57461 17.6668C8.90794 18.5585 11.0913 18.5585 12.4246 17.6668C13.5996 16.8835 13.5996 15.6001 12.4246 14.8168C11.0996 13.9335 8.90794 13.9335 7.57461 14.8168Z" stroke="#2870FB" stroke-width="1.5" stroke-linecap="round" stroke-linejoin="round"/>
</g>
</g>
</g>
</svg>
