<svg width="20" height="18" viewBox="0 0 20 18" fill="none" xmlns="http://www.w3.org/2000/svg">
<g id="Group 36997">
<path id="Fill 620" fill-rule="evenodd" clip-rule="evenodd" d="M9.99982 0.98584C3.83232 0.98584 1.64648 3.08251 1.64648 9.00001C1.64648 14.9167 3.83232 17.0142 9.99982 17.0142C16.1673 17.0142 18.3532 14.9167 18.3532 9.00001C18.3532 3.08251 16.1673 0.98584 9.99982 0.98584Z" stroke="#2870FB" stroke-width="1.5"/>
<path id="Fill 676" d="M10.0084 10.3775C12.1942 10.3775 14.8267 7.29334 15.1201 6.94167C15.3409 6.67667 15.3051 6.28251 15.0401 6.06084C14.7751 5.84167 14.3809 5.87667 14.1601 6.14084C13.1967 7.29584 11.2176 9.12751 10.0084 9.12751C8.79839 9.12751 6.80089 7.29417 5.82506 6.13834C5.60256 5.87501 5.20839 5.84001 4.94506 6.06334C4.68089 6.28584 4.64756 6.68001 4.86922 6.94417C5.16589 7.29584 7.82506 10.3775 10.0084 10.3775Z" fill="#2870FB"/>
</g>
</svg>
