<svg width="14" height="14" viewBox="0 0 14 14" fill="none" xmlns="http://www.w3.org/2000/svg">
<path d="M5.99083 2.04749L4.96417 4.10083C4.82417 4.38666 4.45083 4.66083 4.13583 4.71333L2.275 5.02249C1.085 5.22083 0.805001 6.08416 1.6625 6.93583L3.10917 8.38249C3.35417 8.62749 3.48833 9.09999 3.4125 9.43833L2.99833 11.2292C2.67167 12.6467 3.42417 13.195 4.67833 12.4542L6.4225 11.4217C6.7375 11.235 7.25667 11.235 7.5775 11.4217L9.32167 12.4542C10.57 13.195 11.3283 12.6408 11.0017 11.2292L10.5875 9.43833C10.5117 9.09999 10.6458 8.62749 10.8908 8.38249L12.3375 6.93583C13.1892 6.08416 12.915 5.22083 11.725 5.02249L9.86417 4.71333C9.555 4.66083 9.18167 4.38666 9.04167 4.10083L8.015 2.04749C7.455 0.933327 6.545 0.933327 5.99083 2.04749Z" fill="#F8D043"/>
</svg>
