<svg width="25" height="25" viewBox="0 0 25 25" fill="none" xmlns="http://www.w3.org/2000/svg">
<path fill-rule="evenodd" clip-rule="evenodd" d="M17.2622 10.627C16.8482 10.627 16.5082 10.291 16.5082 9.87701C16.5082 9.46301 16.8392 9.12701 17.2532 9.12701H17.2622C17.6762 9.12701 18.0122 9.46301 18.0122 9.87701C18.0122 10.291 17.6762 10.627 17.2622 10.627ZM12.3412 17.271C10.1932 17.271 8.44623 15.523 8.44623 13.375C8.44623 11.228 10.1932 9.48101 12.3412 9.48101C14.4892 9.48101 16.2362 11.228 16.2362 13.375C16.2362 15.523 14.4892 17.271 12.3412 17.271ZM17.9602 6.50301C17.7912 6.45001 17.5452 6.33901 17.3382 6.11201C17.2522 6.01801 17.1362 5.78301 17.0242 5.55701C16.7222 4.94601 16.3092 4.11001 15.4782 3.76001C14.4102 3.31201 10.3102 3.31001 9.20723 3.75801C8.38723 4.09501 7.96923 4.93501 7.66423 5.54801C7.54923 5.77801 7.43123 6.01601 7.34323 6.11201C7.13723 6.34001 6.89123 6.45001 6.73823 6.49901C3.44123 7.41101 2.83723 9.55401 2.83723 13.444C2.83723 19.068 4.20923 21.577 12.3412 21.577C20.4722 21.577 21.8442 19.068 21.8442 13.444C21.8442 9.55401 21.2412 7.41101 17.9602 6.50301Z" fill="#0F1D3B"/>
<path fill-rule="evenodd" clip-rule="evenodd" d="M12.3414 10.9805C11.0204 10.9805 9.94636 12.0545 9.94636 13.3755C9.94636 14.6965 11.0204 15.7705 12.3414 15.7705C13.6624 15.7705 14.7364 14.6965 14.7364 13.3755C14.7364 12.0545 13.6624 10.9805 12.3414 10.9805Z" fill="#0F1D3B"/>
</svg>
