<svg width="25" height="24" viewBox="0 0 25 24" fill="none" xmlns="http://www.w3.org/2000/svg">
<path d="M13.3443 20.42H7.02434C3.86434 20.42 2.81434 18.32 2.81434 16.21V7.79C2.81434 4.63 3.86434 3.58 7.02434 3.58H13.3443C16.5043 3.58 17.5543 4.63 17.5543 7.79V16.21C17.5543 19.37 16.4943 20.42 13.3443 20.42Z" stroke="#898B97" stroke-width="1.5" stroke-linecap="round" stroke-linejoin="round"/>
<path d="M20.3343 17.1L17.5543 15.15V8.83999L20.3343 6.88999C21.6943 5.93999 22.8143 6.51999 22.8143 8.18999V15.81C22.8143 17.48 21.6943 18.06 20.3343 17.1Z" stroke="#898B97" stroke-width="1.5" stroke-linecap="round" stroke-linejoin="round"/>
<path d="M12.3143 11C13.1428 11 13.8143 10.3284 13.8143 9.5C13.8143 8.67157 13.1428 8 12.3143 8C11.4859 8 10.8143 8.67157 10.8143 9.5C10.8143 10.3284 11.4859 11 12.3143 11Z" stroke="#898B97" stroke-width="1.5" stroke-linecap="round" stroke-linejoin="round"/>
</svg>
