<svg width="22" height="22" viewBox="0 0 22 22" fill="none" xmlns="http://www.w3.org/2000/svg">
<path fill-rule="evenodd" clip-rule="evenodd" d="M18.0714 18.2915C15.0152 21.348 10.4898 22.0083 6.78642 20.2956C6.23971 20.0755 5.79148 19.8976 5.36537 19.8976C4.17849 19.9047 2.70117 21.0555 1.93336 20.2886C1.16555 19.5207 2.31726 18.0422 2.31726 16.8482C2.31726 16.422 2.14642 15.9818 1.92632 15.434C0.212831 11.7312 0.874109 7.20431 3.93026 4.14882C7.8316 0.246051 14.17 0.246051 18.0714 4.14782C21.9797 8.05662 21.9727 14.3897 18.0714 18.2915Z" stroke="#0F1D3B" stroke-width="1.5" stroke-linecap="round" stroke-linejoin="round"/>
<path d="M14.9393 11.6346H14.9483" stroke="#0F1D3B" stroke-width="2" stroke-linecap="round" stroke-linejoin="round"/>
<path d="M10.9303 11.6346H10.9393" stroke="#0F1D3B" stroke-width="2" stroke-linecap="round" stroke-linejoin="round"/>
<path d="M6.92128 11.6346H6.93028" stroke="#0F1D3B" stroke-width="2" stroke-linecap="round" stroke-linejoin="round"/>
</svg>
