<svg width="124" height="124" viewBox="0 0 124 124" fill="none" xmlns="http://www.w3.org/2000/svg">
<path d="M47.7143 46.744C49.9223 46.744 51.9143 47.272 53.6903 48.328C55.4663 49.384 56.8743 50.824 57.9143 52.648C58.9703 54.472 59.4983 56.544 59.4983 58.864V70.36C59.4983 72.776 58.9783 74.912 57.9383 76.768C56.8983 78.624 55.4583 80.08 53.6183 81.136C51.7943 82.192 49.6983 82.72 47.3303 82.72C45.4423 82.72 43.6743 82.328 42.0263 81.544C40.3943 80.76 39.0103 79.648 37.8743 78.208L41.0663 75.376C41.7703 76.368 42.6743 77.168 43.7783 77.776C44.8823 78.368 46.0663 78.664 47.3303 78.664C48.8663 78.664 50.2183 78.296 51.3863 77.56C52.5703 76.824 53.4903 75.864 54.1463 74.68C54.8183 73.496 55.1543 72.216 55.1543 70.84V63.904L56.0903 64.96C55.0983 66.4 53.8263 67.552 52.2743 68.416C50.7223 69.28 49.0343 69.712 47.2103 69.712C45.0663 69.712 43.1463 69.208 41.4503 68.2C39.7543 67.192 38.4103 65.832 37.4183 64.12C36.4263 62.392 35.9303 60.456 35.9303 58.312C35.9303 56.168 36.4663 54.224 37.5383 52.48C38.6103 50.72 40.0343 49.328 41.8103 48.304C43.6023 47.264 45.5703 46.744 47.7143 46.744ZM47.7143 50.872C46.3383 50.872 45.0823 51.208 43.9463 51.88C42.8263 52.536 41.9303 53.432 41.2583 54.568C40.5863 55.688 40.2503 56.936 40.2503 58.312C40.2503 59.688 40.5783 60.944 41.2343 62.08C41.9063 63.2 42.8023 64.096 43.9223 64.768C45.0583 65.44 46.3143 65.776 47.6903 65.776C49.0663 65.776 50.3223 65.44 51.4583 64.768C52.5943 64.096 53.4903 63.2 54.1463 62.08C54.8183 60.944 55.1543 59.688 55.1543 58.312C55.1543 56.952 54.8183 55.712 54.1463 54.592C53.4903 53.456 52.5943 52.552 51.4583 51.88C50.3383 51.208 49.0903 50.872 47.7143 50.872ZM76.9268 82.72C74.6868 82.72 72.6868 82.216 70.9268 81.208C69.1828 80.184 67.7988 78.8 66.7748 77.056C65.7668 75.296 65.2628 73.296 65.2628 71.056V58.384C65.2628 56.144 65.7668 54.144 66.7748 52.384C67.7988 50.624 69.1828 49.24 70.9268 48.232C72.6868 47.224 74.6868 46.72 76.9268 46.72C79.1668 46.72 81.1668 47.224 82.9268 48.232C84.6868 49.24 86.0708 50.624 87.0788 52.384C88.0868 54.144 88.5908 56.144 88.5908 58.384V71.056C88.5908 73.296 88.0868 75.296 87.0788 77.056C86.0708 78.8 84.6868 80.184 82.9268 81.208C81.1668 82.216 79.1668 82.72 76.9268 82.72ZM76.9268 78.616C78.2868 78.616 79.5188 78.288 80.6228 77.632C81.7268 76.976 82.6068 76.096 83.2628 74.992C83.9188 73.872 84.2468 72.64 84.2468 71.296V58.12C84.2468 56.76 83.9188 55.528 83.2628 54.424C82.6068 53.32 81.7268 52.44 80.6228 51.784C79.5188 51.128 78.2868 50.8 76.9268 50.8C75.5828 50.8 74.3508 51.128 73.2308 51.784C72.1268 52.44 71.2468 53.32 70.5908 54.424C69.9348 55.528 69.6068 56.76 69.6068 58.12V71.296C69.6068 72.64 69.9348 73.872 70.5908 74.992C71.2468 76.096 72.1268 76.976 73.2308 77.632C74.3508 78.288 75.5828 78.616 76.9268 78.616Z" fill="#0F1D3B"/>
<path d="M34.0609 110.302C32.3464 113.266 28.5315 114.303 25.7534 112.301C15.5395 104.941 7.76486 94.6115 3.5395 82.6487C-1.37703 68.7291 -1.16551 53.512 4.13601 39.7344C9.43753 25.9568 19.4811 14.5229 32.4602 7.48942C45.4394 0.455916 60.5023 -1.71566 74.9396 1.3653C89.3769 4.44625 102.241 12.5775 111.218 24.2966C120.196 36.0157 124.697 50.5534 123.912 65.2949C123.128 80.0364 117.109 94.0143 106.939 104.714C98.198 113.91 86.8839 120.166 74.5554 122.716C71.2022 123.409 68.143 120.905 67.7878 117.499C67.4326 114.093 69.9205 111.083 73.2554 110.306C82.6472 108.118 91.2456 103.226 97.9509 96.1715C106.087 87.6114 110.902 76.4292 111.53 64.6359C112.158 52.8427 108.557 41.2125 101.375 31.8373C94.1929 22.462 83.9015 15.957 72.3517 13.4922C60.8018 11.0275 48.7515 12.7647 38.3682 18.3915C27.9849 24.0183 19.95 33.1654 15.7088 44.1875C11.4676 55.2096 11.2984 67.3833 15.2316 78.519C18.4731 87.6962 24.3255 95.672 32.0058 101.503C34.733 103.574 35.7754 107.338 34.0609 110.302Z" fill="#E0E0E0"/>
<path d="M62 6.2C62 2.77584 64.783 -0.0321454 68.19 0.309665C80.7165 1.56637 92.6184 6.61522 102.266 14.8548C113.491 24.4422 120.927 37.7204 123.237 52.3011C125.546 66.8817 122.577 81.8079 114.864 94.3949C107.15 106.982 95.1989 116.404 81.159 120.966C67.1192 125.527 51.9123 124.93 38.2736 119.281C24.6349 113.631 13.4596 103.301 6.75759 90.1474C0.0556039 76.994 -1.73315 61.8809 1.71307 47.5264C4.67482 35.1898 11.3361 24.1094 20.7315 15.7299C23.287 13.4507 27.1889 14.0866 29.2016 16.8568C31.2143 19.627 30.5679 23.4784 28.0702 25.8207C21.0361 32.4174 16.0425 40.9572 13.7705 50.4211C11.0135 61.9047 12.4445 73.9952 17.8061 84.5179C23.1677 95.0406 32.108 103.305 43.0189 107.824C53.9298 112.344 66.0953 112.822 77.3272 109.172C88.5591 105.523 98.1203 97.9855 104.291 87.9159C110.462 77.8463 112.837 65.9054 110.989 54.2409C109.142 42.5763 103.193 31.9538 94.2126 24.2839C86.8117 17.9629 77.7523 13.9892 68.1842 12.7869C64.7867 12.36 62 9.62416 62 6.2Z" fill="#006AFF"/>
</svg>
