<svg width="169" height="169" viewBox="0 0 169 169" fill="none" xmlns="http://www.w3.org/2000/svg">
<g clip-path="url(#clip0_1952_43228)">
<path d="M84.6933 164.84C84.6933 167.049 86.4854 168.85 88.692 168.745C103.134 168.058 117.18 163.659 129.46 155.944C142.871 147.517 153.631 135.477 160.504 121.208C167.377 106.938 170.083 91.0187 168.312 75.2797C166.54 59.5407 160.362 44.6213 150.488 32.237C140.615 19.8528 127.446 10.5066 112.497 5.27321C97.5486 0.0397781 81.4262 -0.868394 65.9842 2.65312C50.5422 6.17463 36.4076 13.9828 25.2057 25.1799C14.9484 35.4328 7.53141 48.1458 3.64467 62.0716C3.05079 64.1994 4.40711 66.3475 6.56074 66.8397L35.1821 73.3798C37.3358 73.8719 39.464 72.5178 40.1382 70.4141C42.4061 63.3374 46.334 56.8831 51.6168 51.6025C57.8454 45.3767 65.7045 41.0351 74.2906 39.0771C82.8767 37.119 91.8411 37.624 100.153 40.5339C108.465 43.4438 115.787 48.6405 121.277 55.5264C126.767 62.4123 130.202 70.7079 131.187 79.4591C132.172 88.2104 130.667 97.062 126.846 104.996C123.024 112.93 117.041 119.625 109.584 124.31C103.26 128.284 96.0926 130.675 88.6885 131.31C86.4875 131.498 84.6933 133.272 84.6933 135.481V164.84Z" fill="#F9838C"/>
<path d="M5.99249 69.5397C3.8232 69.122 1.71609 70.5411 1.40195 72.7278C-0.128408 83.3805 0.397272 94.2408 2.96419 104.718C5.84879 116.491 11.243 127.502 18.7778 136.998C26.3125 146.493 35.8098 154.249 46.6197 159.733C56.2391 164.614 66.6958 167.594 77.4175 168.525C79.6184 168.716 81.4792 166.986 81.5654 164.779L82.7112 135.442C82.7975 133.235 81.0739 131.393 78.8819 131.118C73.5396 130.45 68.3426 128.862 63.5235 126.417C57.513 123.368 52.2322 119.056 48.0428 113.776C43.8533 108.496 40.854 102.374 39.25 95.8273C37.9641 90.5786 37.5995 85.1569 38.1623 79.8025C38.3932 77.6054 36.9913 75.5084 34.822 75.0907L5.99249 69.5397Z" fill="#5A86FC"/>
</g>
<defs>
<clipPath id="clip0_1952_43228">
<rect width="168.756" height="168.756" fill="white" transform="translate(0.121826 0.12207)"/>
</clipPath>
</defs>
</svg>
