<svg width="24" height="24" viewBox="0 0 24 24" fill="none" xmlns="http://www.w3.org/2000/svg">
<path d="M14.4116 8.66645L14.058 8.31289L13.7045 8.66645L4.64449 17.7264L4.49805 17.8729V18.08V19V19.5H4.99805H5.91805H6.12515L6.2716 19.3536L15.3316 10.2936L15.6852 9.94L15.3316 9.58645L14.4116 8.66645ZM17.3116 3.64355C17.4044 3.55077 17.5357 3.5 17.658 3.5C17.797 3.5 17.9162 3.54522 18.0145 3.64355L20.3545 5.98355C20.5492 6.17829 20.5492 6.49171 20.3545 6.68645L18.878 8.16289L15.8352 5.12L17.3116 3.64355ZM3.49805 17.4571L14.058 6.89711L17.1009 9.94L6.54094 20.5H3.49805V17.4571Z" fill="#2870FB" stroke="#2870FB"/>
</svg>
