<svg width="14" height="15" viewBox="0 0 14 15" fill="none" xmlns="http://www.w3.org/2000/svg">
<path fill-rule="evenodd" clip-rule="evenodd" d="M13.4656 4.69301V10.127C13.4656 12.1403 12.2056 13.5603 10.1923 13.5603H4.42562C2.41228 13.5603 1.15895 12.1403 1.15895 10.127V4.69301C1.15895 2.67968 2.41895 1.26034 4.42562 1.26034H10.1923C12.2056 1.26034 13.4656 2.67968 13.4656 4.69301Z" stroke="#3F4B63" stroke-linecap="round" stroke-linejoin="round"/>
<path d="M2.84648 10.3808L3.86515 9.30547C4.21915 8.93014 4.80915 8.91214 5.18515 9.26547C5.19648 9.27681 5.80982 9.90014 5.80982 9.90014C6.17982 10.2768 6.78448 10.2828 7.16115 9.91347C7.18582 9.88947 8.71715 8.03214 8.71715 8.03214C9.11182 7.55281 9.82048 7.48414 10.3005 7.87947C10.3325 7.90614 11.7792 9.39081 11.7792 9.39081" stroke="#3F4B63" stroke-linecap="round" stroke-linejoin="round"/>
<path fill-rule="evenodd" clip-rule="evenodd" d="M6.20068 5.51561C6.20068 6.16161 5.67735 6.68494 5.03135 6.68494C4.38535 6.68494 3.86202 6.16161 3.86202 5.51561C3.86202 4.86961 4.38535 4.34628 5.03135 4.34628C5.67735 4.34694 6.20068 4.86961 6.20068 5.51561Z" stroke="#3F4B63" stroke-linecap="round" stroke-linejoin="round"/>
</svg>
