<svg width="18" height="17" viewBox="0 0 18 17" fill="none" xmlns="http://www.w3.org/2000/svg">
<g clip-path="url(#clip0_30_87)">
<path d="M7.57341 0.890564C8.02241 -0.491396 9.97761 -0.491396 10.4266 0.890574L11.4697 4.1008C11.6705 4.71884 12.2464 5.13728 12.8962 5.13728H16.2717C17.7248 5.13728 18.3289 6.99669 17.1534 7.85079L14.4226 9.83479C13.8968 10.2168 13.6769 10.8939 13.8777 11.5119L14.9207 14.7221C15.3698 16.1041 13.788 17.2533 12.6125 16.3992L9.88171 14.4152C9.35591 14.0332 8.64411 14.0332 8.11831 14.4152L5.38754 16.3992C4.21197 17.2533 2.63025 16.1041 3.07928 14.7221L4.12235 11.5119C4.32316 10.8939 4.10317 10.2168 3.57744 9.83479L0.846646 7.85079C-0.328924 6.99669 0.275236 5.13728 1.72833 5.13728H5.10377C5.75361 5.13728 6.32951 4.71884 6.53031 4.1008L7.57341 0.890564Z" fill="#E0E0E0"/>
<mask id="mask0_30_87" style="mask-type:luminance" maskUnits="userSpaceOnUse" x="-4" y="-4" width="13" height="26">
<path d="M9 -3.5H-3.5V21.5H9V-3.5Z" fill="white"/>
</mask>
<g mask="url(#mask0_30_87)">
<path d="M7.57341 0.890564C8.02241 -0.491396 9.97761 -0.491396 10.4266 0.890574L11.4697 4.1008C11.6705 4.71884 12.2464 5.13728 12.8962 5.13728H16.2717C17.7248 5.13728 18.3289 6.99669 17.1534 7.85079L14.4226 9.83479C13.8968 10.2168 13.6769 10.8939 13.8777 11.5119L14.9207 14.7221C15.3698 16.1041 13.788 17.2533 12.6125 16.3992L9.88171 14.4152C9.35591 14.0332 8.64411 14.0332 8.11831 14.4152L5.38754 16.3992C4.21197 17.2533 2.63025 16.1041 3.07928 14.7221L4.12235 11.5119C4.32316 10.8939 4.10317 10.2168 3.57744 9.83479L0.846646 7.85079C-0.328924 6.99669 0.275236 5.13728 1.72833 5.13728H5.10377C5.75361 5.13728 6.32951 4.71884 6.53031 4.1008L7.57341 0.890564Z" fill="#FBD537"/>
</g>
</g>
<defs>
<clipPath id="clip0_30_87">
<rect width="18" height="17" fill="white"/>
</clipPath>
</defs>
</svg>
