<svg width="16" height="16" viewBox="0 0 16 16" fill="none" xmlns="http://www.w3.org/2000/svg">
<path d="M5.33334 14.6667H10.6667C13.3467 14.6667 13.8267 13.5933 13.9667 12.2867L14.4667 6.95333C14.6467 5.32667 14.18 4 11.3333 4H4.66667C1.82 4 1.35333 5.32667 1.53333 6.95333L2.03333 12.2867C2.17333 13.5933 2.65333 14.6667 5.33334 14.6667Z" stroke="#2870FB" stroke-miterlimit="10" stroke-linecap="round" stroke-linejoin="round"/>
<path d="M5.33333 3.99999V3.46666C5.33333 2.28666 5.33333 1.33333 7.46667 1.33333H8.53333C10.6667 1.33333 10.6667 2.28666 10.6667 3.46666V3.99999" stroke="#2870FB" stroke-miterlimit="10" stroke-linecap="round" stroke-linejoin="round"/>
<path d="M9.33333 8.66667V9.33333C9.33333 9.34 9.33333 9.34 9.33333 9.34667C9.33333 10.0733 9.32667 10.6667 8 10.6667C6.68 10.6667 6.66667 10.08 6.66667 9.35333V8.66667C6.66667 8 6.66667 8 7.33333 8H8.66667C9.33333 8 9.33333 8 9.33333 8.66667Z" stroke="#2870FB" stroke-miterlimit="10" stroke-linecap="round" stroke-linejoin="round"/>
<path d="M14.4333 7.33333C12.8933 8.45333 11.1333 9.12 9.33333 9.34666" stroke="#2870FB" stroke-miterlimit="10" stroke-linecap="round" stroke-linejoin="round"/>
<path d="M1.74667 7.51334C3.24667 8.54 4.94 9.16 6.66667 9.35334" stroke="#2870FB" stroke-miterlimit="10" stroke-linecap="round" stroke-linejoin="round"/>
</svg>
