<svg width="24" height="25" viewBox="0 0 24 25" fill="none" xmlns="http://www.w3.org/2000/svg">
<path d="M15.1619 8.67213L15.173 8.66226L15.1836 8.65174C16.0568 7.77846 17.2884 7.26819 18.6 7.26819C21.3069 7.26819 23.5 9.44735 23.5 12.1382C23.5 14.8302 21.3057 17.0182 18.6 17.0182C17.2822 17.0182 16.0585 16.5105 15.1318 15.5929L15.1215 15.5827L15.1107 15.5732L14.2646 14.827L15.0203 14.1564L15.8175 14.8627C16.5879 15.6276 17.5699 16.0282 18.6 16.0282C20.7442 16.0282 22.49 14.2963 22.49 12.1482C22.49 10.0001 20.7442 8.26819 18.6 8.26819C17.5637 8.26819 16.5907 8.66608 15.8573 9.39379L8.83808 15.6242L8.82696 15.6341L8.81645 15.6446C7.94317 16.5179 6.71162 17.0282 5.4 17.0282C2.69493 17.0282 0.5 14.8308 0.5 12.1482C0.5 9.46554 2.69493 7.26819 5.4 7.26819C6.70806 7.26819 7.94069 7.77598 8.86645 8.70174L8.87762 8.71292L8.88948 8.72337L9.72516 9.45956L8.96954 10.1301L8.18244 9.43356C7.41271 8.66928 6.4408 8.26819 5.4 8.26819C3.25578 8.26819 1.51 10.0001 1.51 12.1482C1.51 14.2963 3.25578 16.0282 5.4 16.0282C6.4363 16.0282 7.40932 15.6303 8.14267 14.9026L15.1619 8.67213Z" fill="black" stroke="#898B97"/>
</svg>
