<svg width="24" height="24" viewBox="0 0 24 24" fill="none" xmlns="http://www.w3.org/2000/svg">
<g clip-path="url(#clip0_36_116)">
<path d="M9.11987 20.538L9.11989 20.538L9.11878 20.5356L6.54078 14.9166C6.50818 14.8455 6.43717 14.8 6.359 14.8H4.105C4.03719 14.8 3.974 14.8344 3.93713 14.8913C3.90027 14.9482 3.89476 15.0199 3.92249 15.0818L6.73007 21.3468C6.73013 21.347 6.73019 21.3471 6.73026 21.3473C6.84238 21.6008 7.02566 21.8163 7.25787 21.9676C7.4902 22.1191 7.76152 22.1998 8.03886 22.2H8.03917C8.23605 22.1998 8.42977 22.1505 8.60278 22.0566C8.77579 21.9626 8.92262 21.827 9.02994 21.6619C9.13727 21.4968 9.2017 21.3076 9.21741 21.1114C9.23311 20.9151 9.19959 20.718 9.11987 20.538ZM15.8779 14.7584C15.9383 14.8049 16.0199 14.8131 16.0883 14.7795C16.1567 14.7458 16.2 14.6762 16.2 14.6V5.405C16.2 5.32881 16.1567 5.25924 16.0884 5.22558C16.02 5.19192 15.9385 5.20001 15.8781 5.24645C14.4857 6.31702 12.7627 6.86667 11.0076 6.80014L11.0076 6.8H11H4C3.41652 6.8 2.85695 7.03179 2.44437 7.44437C2.03179 7.85695 1.8 8.41652 1.8 9V11C1.8 11.5835 2.03179 12.1431 2.44437 12.5556C2.85695 12.9682 3.41652 13.2 4 13.2H11V13.2001L11.0074 13.1999C12.7631 13.1347 14.4862 13.6861 15.8779 14.7584ZM20.6474 14.7211L20.6474 14.7211C20.4575 14.6262 20.313 14.4598 20.2458 14.2585C20.1786 14.0571 20.1941 13.8373 20.2889 13.6474C20.3838 13.4574 20.5502 13.313 20.7515 13.2458C20.9529 13.1786 21.1727 13.1941 21.3626 13.2889C21.3626 13.2889 21.3626 13.2889 21.3626 13.2889L23.3623 14.2888C23.5512 14.3835 23.695 14.5492 23.7621 14.7496C23.8293 14.9501 23.8144 15.1689 23.7207 15.3584C23.7167 15.3664 23.7133 15.3747 23.7105 15.3832C23.6645 15.4689 23.6033 15.5457 23.5297 15.6096C23.4504 15.6785 23.3582 15.7311 23.2585 15.7644C23.1588 15.7977 23.0535 15.811 22.9487 15.8036C22.8438 15.7961 22.7415 15.7681 22.6474 15.7211L20.6474 14.7211ZM20.289 6.36271L20.2889 6.36256C20.2419 6.26854 20.2139 6.16618 20.2064 6.06133C20.199 5.95648 20.2123 5.8512 20.2456 5.75149C20.2789 5.65179 20.3315 5.55962 20.4004 5.48026C20.4693 5.40089 20.5532 5.33589 20.6473 5.28896L20.6474 5.28889L22.6474 4.28893C22.6474 4.28891 22.6474 4.2889 22.6474 4.28889C22.8373 4.19407 23.0571 4.17856 23.2585 4.24577C23.4598 4.31299 23.6262 4.45745 23.7211 4.64736C23.8159 4.83728 23.8315 5.05709 23.7642 5.25845C23.697 5.45981 23.5526 5.62622 23.3626 5.72107L23.3626 5.72111L21.3626 6.72111C21.2685 6.76812 21.1662 6.79613 21.0613 6.80356C20.9565 6.81099 20.8512 6.79768 20.7515 6.76439C20.6518 6.73111 20.5596 6.6785 20.4803 6.60958C20.4009 6.54066 20.3359 6.45677 20.289 6.36271ZM20.2 10C20.2 9.78783 20.2843 9.58434 20.4343 9.43431C20.5843 9.28429 20.7878 9.2 21 9.2H23C23.2122 9.2 23.4157 9.28429 23.5657 9.43431C23.7157 9.58434 23.8 9.78783 23.8 10C23.8 10.2122 23.7157 10.4157 23.5657 10.5657C23.4157 10.7157 23.2122 10.8 23 10.8H21C20.7878 10.8 20.5843 10.7157 20.4343 10.5657C20.2843 10.4157 20.2 10.2122 20.2 10Z" fill="#898B97" stroke="white" stroke-width="0.4" stroke-linejoin="round"/>
</g>
<defs>
<clipPath id="clip0_36_116">
<rect width="24" height="24" fill="white"/>
</clipPath>
</defs>
</svg>
