<svg width="25" height="25" viewBox="0 0 25 25" fill="none" xmlns="http://www.w3.org/2000/svg">
<path d="M12.3966 2.95776C9.08655 2.95776 6.39655 5.64776 6.39655 8.95776V11.8478C6.39655 12.4578 6.13655 13.3878 5.82655 13.9078L4.67655 15.8178C3.96655 16.9978 4.45655 18.3078 5.75655 18.7478C10.0666 20.1878 14.7166 20.1878 19.0266 18.7478C20.2366 18.3478 20.7666 16.9178 20.1066 15.8178L18.9566 13.9078C18.6566 13.3878 18.3966 12.4578 18.3966 11.8478V8.95776C18.3966 5.65776 15.6966 2.95776 12.3966 2.95776Z" stroke="#0F1D3B" stroke-width="1.5" stroke-miterlimit="10" stroke-linecap="round"/>
<path d="M14.2464 3.24767C13.9364 3.15767 13.6164 3.08767 13.2864 3.04767C12.3264 2.92767 11.4064 2.99767 10.5464 3.24767C10.8364 2.50767 11.5564 1.98767 12.3964 1.98767C13.2364 1.98767 13.9564 2.50767 14.2464 3.24767Z" stroke="#0F1D3B" stroke-width="1.5" stroke-miterlimit="10" stroke-linecap="round" stroke-linejoin="round"/>
<path d="M15.3965 19.1078C15.3965 20.7578 14.0465 22.1078 12.3965 22.1078C11.5765 22.1078 10.8165 21.7678 10.2765 21.2278C9.73648 20.6878 9.39648 19.9278 9.39648 19.1078" stroke="#0F1D3B" stroke-width="1.5" stroke-miterlimit="10"/>
</svg>
