<svg width="7" height="12" viewBox="0 0 7 12" fill="none" xmlns="http://www.w3.org/2000/svg">
<path d="M5.53194 12.0017C5.66345 12.0017 5.79495 11.9533 5.89878 11.8494C6.0995 11.6487 6.0995 11.3165 5.89878 11.1158L1.38601 6.60301C1.05379 6.27078 1.05379 5.73091 1.38601 5.39868L5.89878 0.88592C6.0995 0.685199 6.0995 0.352971 5.89878 0.15225C5.69805 -0.0484713 5.36583 -0.0484713 5.16511 0.15225L0.652344 4.66501C0.299352 5.018 0.0986314 5.49558 0.0986314 6.00084C0.0986314 6.50611 0.29243 6.98369 0.652344 7.33668L5.16511 11.8494C5.26893 11.9463 5.40043 12.0017 5.53194 12.0017Z" fill="#898B97"/>
</svg>
