<svg width="19" height="18" viewBox="0 0 19 18" fill="none" xmlns="http://www.w3.org/2000/svg">
<path d="M8.07342 1.39057C8.52244 0.00860763 10.4776 0.00861025 10.9266 1.39058L11.9697 4.60081C12.1705 5.21885 12.7464 5.63729 13.3962 5.63729H16.7717C18.2248 5.63729 18.8289 7.49671 17.6534 8.35081L14.9226 10.3348C14.3968 10.7168 14.1769 11.3939 14.3777 12.0119L15.4207 15.2221C15.8698 16.6041 14.288 17.7533 13.1125 16.8992L10.3817 14.9152C9.85595 14.5332 9.14405 14.5332 8.61832 14.9152L5.88753 16.8992C4.71196 17.7533 3.13024 16.6041 3.57927 15.2221L4.62234 12.0119C4.82315 11.3939 4.60316 10.7168 4.07743 10.3348L1.34664 8.35081C0.171068 7.49671 0.775234 5.63729 2.22832 5.63729H5.60376C6.2536 5.63729 6.82953 5.21885 7.03035 4.60081L8.07342 1.39057Z" fill="#FBD537"/>
</svg>
