<svg width="16" height="16" viewBox="0 0 16 16" fill="none" xmlns="http://www.w3.org/2000/svg">
<path d="M10.6667 8.6V11.4C10.6667 13.7333 9.73333 14.6667 7.4 14.6667H4.6C2.26667 14.6667 1.33333 13.7333 1.33333 11.4V8.6C1.33333 6.26667 2.26667 5.33333 4.6 5.33333H7.4C9.73333 5.33333 10.6667 6.26667 10.6667 8.6Z" stroke="#2870FB" stroke-linecap="round" stroke-linejoin="round"/>
<path d="M14.6667 4.6V7.4C14.6667 9.73333 13.7333 10.6667 11.4 10.6667H10.6667V8.6C10.6667 6.26667 9.73333 5.33333 7.4 5.33333H5.33333V4.6C5.33333 2.26667 6.26667 1.33333 8.6 1.33333H11.4C13.7333 1.33333 14.6667 2.26667 14.6667 4.6Z" stroke="#2870FB" stroke-linecap="round" stroke-linejoin="round"/>
</svg>
