<svg width="13" height="13" viewBox="0 0 13 13" fill="none" xmlns="http://www.w3.org/2000/svg">
<rect width="13" height="13" transform="matrix(-1 0 0 1 13 0)" fill="white"/>
<path d="M5.56292 1.90124L4.60959 3.80791C4.47959 4.07333 4.13292 4.32791 3.84042 4.37666L2.1125 4.66374C1.0075 4.84791 0.747504 5.64958 1.54375 6.44041L2.88709 7.78374C3.11459 8.01124 3.23917 8.44999 3.16875 8.76416L2.78417 10.4271C2.48084 11.7433 3.17959 12.2525 4.34417 11.5646L5.96375 10.6058C6.25625 10.4325 6.73834 10.4325 7.03625 10.6058L8.65584 11.5646C9.815 12.2525 10.5192 11.7379 10.2158 10.4271L9.83125 8.76416C9.76084 8.44999 9.88542 8.01124 10.1129 7.78374L11.4563 6.44041C12.2471 5.64958 11.9925 4.84791 10.8875 4.66374L9.15959 4.37666C8.8725 4.32791 8.52584 4.07333 8.39584 3.80791L7.4425 1.90124C6.9225 0.866659 6.0775 0.866659 5.56292 1.90124Z" fill="#F8D043"/>
</svg>
