<svg width="195" height="35" viewBox="0 0 195 35" fill="none" xmlns="http://www.w3.org/2000/svg">
<path d="M15.5979 5.8541C16.1966 4.01148 18.8034 4.01148 19.4021 5.8541L20.98 10.7102C21.2477 11.5343 22.0156 12.0922 22.8821 12.0922L27.9881 12.0922C29.9256 12.0922 30.7311 14.5714 29.1637 15.7102L25.0328 18.7115C24.3318 19.2208 24.0385 20.1235 24.3063 20.9476L25.8841 25.8037C26.4828 27.6463 24.3739 29.1786 22.8064 28.0398L18.6756 25.0385C17.9746 24.5292 17.0254 24.5292 16.3244 25.0385L12.1936 28.0398C10.6261 29.1786 8.51717 27.6463 9.11587 25.8037L10.6937 20.9476C10.9615 20.1235 10.6682 19.2208 9.96718 18.7115L5.8363 15.7102C4.26888 14.5714 5.07443 12.0922 7.01188 12.0922L12.1179 12.0922C12.9844 12.0922 13.7523 11.5343 14.02 10.7102L15.5979 5.8541Z" fill="#F8D043"/>
<path d="M55.5979 5.8541C56.1966 4.01148 58.8034 4.01148 59.4021 5.8541L60.98 10.7102C61.2477 11.5343 62.0156 12.0922 62.8821 12.0922L67.9881 12.0922C69.9256 12.0922 70.7311 14.5714 69.1637 15.7102L65.0328 18.7115C64.3318 19.2208 64.0385 20.1235 64.3063 20.9476L65.8841 25.8037C66.4828 27.6463 64.3739 29.1786 62.8064 28.0398L58.6756 25.0385C57.9746 24.5292 57.0254 24.5292 56.3244 25.0385L52.1936 28.0398C50.6261 29.1786 48.5172 27.6463 49.1159 25.8037L50.6937 20.9476C50.9615 20.1235 50.6682 19.2208 49.9672 18.7115L45.8363 15.7102C44.2689 14.5714 45.0744 12.0922 47.0119 12.0922L52.1179 12.0922C52.9844 12.0922 53.7523 11.5343 54.02 10.7102L55.5979 5.8541Z" fill="#F8D043"/>
<path d="M95.5979 5.8541C96.1966 4.01148 98.8034 4.01148 99.4021 5.8541L100.98 10.7102C101.248 11.5343 102.016 12.0922 102.882 12.0922L107.988 12.0922C109.926 12.0922 110.731 14.5714 109.164 15.7102L105.033 18.7115C104.332 19.2208 104.039 20.1235 104.306 20.9476L105.884 25.8037C106.483 27.6463 104.374 29.1786 102.806 28.0398L98.6756 25.0385C97.9746 24.5292 97.0254 24.5292 96.3244 25.0385L92.1936 28.0398C90.6261 29.1786 88.5172 27.6463 89.1159 25.8037L90.6937 20.9476C90.9615 20.1235 90.6682 19.2208 89.9672 18.7115L85.8363 15.7102C84.2689 14.5714 85.0744 12.0922 87.0119 12.0922L92.1179 12.0922C92.9844 12.0922 93.7523 11.5343 94.02 10.7102L95.5979 5.8541Z" fill="#F8D043"/>
<path d="M135.598 5.8541C136.197 4.01148 138.803 4.01148 139.402 5.8541L140.98 10.7102C141.248 11.5343 142.016 12.0922 142.882 12.0922L147.988 12.0922C149.926 12.0922 150.731 14.5714 149.164 15.7102L145.033 18.7115C144.332 19.2208 144.039 20.1235 144.306 20.9476L145.884 25.8037C146.483 27.6463 144.374 29.1786 142.806 28.0398L138.676 25.0385C137.975 24.5292 137.025 24.5292 136.324 25.0385L132.194 28.0398C130.626 29.1786 128.517 27.6463 129.116 25.8037L130.694 20.9476C130.961 20.1235 130.668 19.2208 129.967 18.7115L125.836 15.7102C124.269 14.5714 125.074 12.0922 127.012 12.0922L132.118 12.0922C132.984 12.0922 133.752 11.5343 134.02 10.7102L135.598 5.8541Z" fill="#F8D043"/>
<path d="M175.598 5.8541C176.197 4.01148 178.803 4.01148 179.402 5.8541L180.98 10.7102C181.248 11.5343 182.016 12.0922 182.882 12.0922L187.988 12.0922C189.926 12.0922 190.731 14.5714 189.164 15.7102L185.033 18.7115C184.332 19.2208 184.039 20.1235 184.306 20.9476L185.884 25.8037C186.483 27.6463 184.374 29.1786 182.806 28.0398L178.676 25.0385C177.975 24.5292 177.025 24.5292 176.324 25.0385L172.194 28.0398C170.626 29.1786 168.517 27.6463 169.116 25.8037L170.694 20.9476C170.961 20.1235 170.668 19.2208 169.967 18.7115L165.836 15.7102C164.269 14.5714 165.074 12.0922 167.012 12.0922L172.118 12.0922C172.984 12.0922 173.752 11.5343 174.02 10.7102L175.598 5.8541Z" fill="#E0E0E0"/>
</svg>
