<svg width="14" height="14" viewBox="0 0 14 14" fill="none" xmlns="http://www.w3.org/2000/svg">
<path fill-rule="evenodd" clip-rule="evenodd" d="M7.37582 1.78483L8.59409 4.21867C8.71349 4.4576 8.94396 4.62328 9.21121 4.66162L11.9365 5.05391C12.6099 5.15112 12.8778 5.96719 12.3905 6.43479L10.4198 8.32846C10.2261 8.51467 10.1379 8.78236 10.1838 9.04526L10.6488 11.7187C10.7634 12.3801 10.0595 12.8846 9.45765 12.5717L7.02179 11.3086C6.783 11.1847 6.497 11.1847 6.25751 11.3086L3.82165 12.5717C3.2198 12.8846 2.51591 12.3801 2.63114 11.7187L3.09555 9.04526C3.14136 8.78236 3.0532 8.51467 2.85953 8.32846L0.888768 6.43479C0.401459 5.96719 0.66941 5.15112 1.34276 5.05391L4.06808 4.66162C4.33534 4.62328 4.5665 4.4576 4.6859 4.21867L5.90348 1.78483C6.20475 1.18305 7.07455 1.18305 7.37582 1.78483Z" stroke="#2870FB" stroke-linecap="round" stroke-linejoin="round"/>
</svg>
